<svg version="1.1" xmlns="http://www.w3.org/2000/svg" xmlns:xlink="http://www.w3.org/1999/xlink" width="48" height="48"><defs><linearGradient x1="8.4432" y1="8.74728" x2="75.58604" y2="75.28198" gradientUnits="userSpaceOnUse" id="color-1"><stop offset="0" stop-color="#000000" stop-opacity="0.15"></stop><stop offset="1" stop-color="#000000" stop-opacity="0"></stop></linearGradient><filter id="dropshadow-base"><feColorMatrix type="matrix" values="0 0 0 0 0  0 0 0 0 0  0 0 0 0 0  0 0 0 .8 0"></feColorMatrix> <feOffset dx="0" dy="1"></feOffset> <feGaussianBlur stdDeviation="1"></feGaussianBlur> <feComposite in="SourceGraphic"></feComposite></filter><filter id="dropshadow-banner" x="-10%" y="-10%" width="120%" height="130%"><feColorMatrix type="matrix" values="0 0 0 0 0  0 0 0 0 0  0 0 0 0 0  0 0 0 .4 0"></feColorMatrix> <feOffset dx="0" dy="1"></feOffset> <feGaussianBlur stdDeviation="0.5"></feGaussianBlur> <feComposite in="SourceGraphic"></feComposite></filter></defs><g fill="none" fill-rule="nonzero" stroke="none" stroke-width="none" stroke-linecap="butt" stroke-linejoin="miter" stroke-miterlimit="10" stroke-dasharray="" stroke-dashoffset="0" font-family="none" font-weight="none" font-size="none" text-anchor="none" style="mix-blend-mode: normal"><path d="M2,24c0,-12.15026 9.84974,-22 22,-22c12.15026,0 22,9.84974 22,22c0,12.15026 -9.84974,22 -22,22c-12.15026,0 -22,-9.84974 -22,-22z" id="base 1 5" fill="#ede7f6" stroke-width="1"></path><path d="M24.93949,8.74728c0.4027,0.23906 0.87413,0.60609 1.37768,1.10964l6.81529,6.81529l0.28998,0l-1.87896,-1.87896c-0.46785,-1.21063 -1.02911,-2.35485 -1.67909,-3.40899c-0.57092,-0.92586 -1.1893,-1.7488 -1.82293,-2.44246c2.61558,0.69748 5.01362,2.07213 6.97889,4.0374l0.00018,0.00018l10.97943,10.97943c0.00003,0.01373 0.00004,0.02746 0.00004,0.0412c0,12.15026 -9.84974,22 -22,22c-0.01382,0 -0.02763,-0.00001 -0.04145,-0.00004l-10.97927,-10.97927c-0.56989,-0.56989 -1.08958,-1.17654 -1.55817,-1.81394h0.69391l-1.8789,-1.8789c-1.04594,-1.95869 -1.65941,-4.12795 -1.79292,-6.38835l1.87896,0l-1.87895,-1.87895c0.13351,-2.2604 0.74696,-4.42959 1.79292,-6.38835l3.06394,0l-1.8789,-1.8789c0.46859,-0.63739 0.98828,-1.24404 1.55817,-1.81394c1.96532,-1.96526 4.36341,-3.34007 6.97913,-4.03751l1.3304,1.3304c0.65066,-0.72184 1.26546,-1.22451 1.77165,-1.52498l1.87896,1.87896z" fill="url(#color-1)" stroke-width="1"></path><path transform="translate(-13.33628,-13.33628) scale(1.55568,1.55568)" d="M27.54581,18.0818h-2.9419v-3.88635c0.57926,0.34387 1.37976,1.09968 2.1378,2.32898c0.30074,0.48777 0.56902,1.00929 0.8041,1.55738zM34,23.39612h-4.0926c-0.04914,-1.42007 -0.27113,-2.80815 -0.65023,-4.10647h3.5903c0.67238,1.2591 1.06668,2.65347 1.15253,4.10647zM28.69869,23.39612h-4.09483v-4.10647h3.3919c0.40984,1.28378 0.64996,2.67573 0.70293,4.10647zM18.74275,19.28965c-0.3791,1.29835 -0.60113,2.68643 -0.65023,4.10647h-4.09252c0.08582,-1.453 0.48015,-2.84737 1.1525,-4.10647zM18.74275,28.71039h-3.59026c-0.67234,-1.25906 -1.06668,-2.65347 -1.1525,-4.10647h4.09252c0.04918,1.42003 0.27117,2.80807 0.65023,4.10647zM21.402,33.67955c-1.68136,-0.44836 -3.22284,-1.33203 -4.48619,-2.59538c-0.36633,-0.36633 -0.70039,-0.75629 -1.0016,-1.16601h3.23671c0.30074,0.77816 0.66152,1.51371 1.07933,2.19128c0.36699,0.59515 0.76449,1.12418 1.17175,1.57011zM32.08571,18.08184h-3.23671c-0.30074,-0.7782 -0.66152,-1.51371 -1.07933,-2.19132c-0.36699,-0.59515 -0.76449,-1.12414 -1.17179,-1.57003c1.68136,0.44836 3.22288,1.33203 4.48619,2.59538c0.36633,0.36633 0.70039,0.75629 1.00164,1.16597zM23.3961,14.19545v3.88643h-2.9419c0.23504,-0.54816 0.50332,-1.06968 0.80406,-1.55742c0.758,-1.22933 1.55855,-1.98515 2.13784,-2.32901zM21.40208,14.32053c-0.4073,0.44586 -0.80484,0.97488 -1.17179,1.57003c-0.41781,0.67761 -0.77859,1.41312 -1.07933,2.19132h-3.23671c0.30121,-0.40972 0.63527,-0.79968 1.0016,-1.16601c1.26332,-1.26328 2.80483,-2.14702 4.48623,-2.59534zM28.69869,24.60392c-0.05293,1.43074 -0.29308,2.82272 -0.70293,4.10647h-3.3919v-4.10647zM33.99992,24.60392c-0.08582,1.453 -0.48012,2.84733 -1.1525,4.10647h-3.59026c0.3791,-1.29835 0.60113,-2.68643 0.65023,-4.10647zM28.849,29.91816h3.23671c-0.30125,0.40972 -0.63531,0.79968 -1.00164,1.16601c-1.26335,1.26332 -2.80483,2.14706 -4.48619,2.59538c0.4073,-0.4459 0.80484,-0.97492 1.17179,-1.57007c0.41781,-0.67761 0.77859,-1.41312 1.07933,-2.19128zM20.45419,29.91816c0.00001,0.00001 0.00001,0.00003 0.00002,0.00004h-0.00002zM20.45421,29.9182l2.94185,0v3.88635c-0.57929,-0.34387 -1.3798,-1.09968 -2.1378,-2.32898c-0.30073,-0.48776 -0.56901,-1.00927 -0.80404,-1.55738zM27.54569,29.91812c-0.23504,0.54816 -0.50332,1.06968 -0.80406,1.55742c-0.758,1.22933 -1.55851,1.98515 -2.1378,2.32898v-3.88639zM23.3961,24.60392v4.10647h-3.3919c-0.40988,-1.28374 -0.65,-2.67573 -0.70297,-4.10647zM23.3961,19.28965v4.10647h-4.09487c0.05297,-1.43074 0.29312,-2.82272 0.70297,-4.10647z" fill="none" stroke-width="0"></path><path d="M29.51613,14.79319h-4.57665v-6.04591c0.90114,0.53494 2.14646,1.71075 3.32574,3.62314c0.46786,0.75882 0.88521,1.57013 1.25092,2.42278zM39.55678,23.06055h-6.36677c-0.07645,-2.20918 -0.42179,-4.36858 -1.01155,-6.38834h5.58535c1.04601,1.95875 1.6594,4.12794 1.79297,6.38834zM31.30965,23.06055h-6.37023v-6.38834h5.27671c0.63758,1.99715 1.01113,4.16258 1.09353,6.38834zM15.82142,16.67221c-0.58976,2.01982 -0.93517,4.17923 -1.01155,6.38834h-6.36665c0.13351,-2.2604 0.74697,-4.42959 1.79291,-6.38834zM15.82142,31.32785h-5.58529c-1.04595,-1.95869 -1.6594,-4.12794 -1.79291,-6.38834h6.36665c0.07651,2.20912 0.42185,4.36846 1.01155,6.38834zM19.95835,39.05827c-2.61566,-0.6975 -5.0137,-2.0722 -6.97907,-4.03758c-0.56989,-0.56989 -1.08958,-1.17654 -1.55816,-1.81394h5.03527c0.46786,1.21057 1.02911,2.35484 1.67909,3.40893c0.57092,0.92587 1.1893,1.74885 1.82287,2.44259zM36.57876,14.79325h-5.03527c-0.46786,-1.21063 -1.02911,-2.35484 -1.67909,-3.40899c-0.57092,-0.92587 -1.1893,-1.74879 -1.82293,-2.44247c2.61566,0.6975 5.01376,2.0722 6.97907,4.03758c0.56989,0.56989 1.08958,1.17654 1.55822,1.81388zM23.06052,8.74727v6.04603h-4.57665c0.36564,-0.85276 0.783,-1.66408 1.25086,-2.42284c1.17921,-1.91244 2.4246,-3.08825 3.3258,-3.6232zM19.95847,8.94185c-0.63363,0.69361 -1.25207,1.5166 -1.82293,2.44247c-0.64998,1.05415 -1.21124,2.19836 -1.67909,3.40899h-5.03527c0.46859,-0.6374 0.98828,-1.24405 1.55816,-1.81394c1.96531,-1.96525 4.36342,-3.34008 6.97913,-4.03752zM31.30965,24.93951c-0.08234,2.22577 -0.45595,4.39125 -1.09353,6.38834h-5.27671v-6.38834zM39.55666,24.93951c-0.13351,2.2604 -0.7469,4.42953 -1.79291,6.38834h-5.58529c0.58976,-2.01982 0.93517,-4.17923 1.01155,-6.38834zM31.54349,33.20675h5.03527c-0.46865,0.6374 -0.98834,1.24405 -1.55822,1.81394c-1.96537,1.96531 -4.36342,3.34014 -6.97907,4.03758c0.63363,-0.69367 1.25207,-1.51666 1.82293,-2.44253c0.64998,-1.05415 1.21124,-2.19836 1.67909,-3.40893zM18.48387,33.20675c0.00001,0.00002 0.00002,0.00004 0.00003,0.00006h-0.00003zM18.48389,33.20681l4.57657,0v6.04591c-0.9012,-0.53494 -2.14652,-1.71075 -3.32574,-3.62314c-0.46785,-0.7588 -0.88519,-1.5701 -1.25083,-2.42278zM29.51595,33.20669c-0.36564,0.85276 -0.783,1.66408 -1.25086,2.42284c-1.17921,1.91244 -2.42454,3.08825 -3.32574,3.62314v-6.04597zM23.06052,24.93951v6.38834h-5.27671c-0.63764,-1.99709 -1.01119,-4.16258 -1.09359,-6.38834zM23.06052,16.67221v6.38834h-6.37029c0.0824,-2.22577 0.45601,-4.39125 1.09359,-6.38834z" fill="#673ab7" stroke-width="0"></path><path d="M2,24c0,-12.15026 9.84974,-22 22,-22c12.15026,0 22,9.84974 22,22c0,12.15026 -9.84974,22 -22,22c-12.15026,0 -22,-9.84974 -22,-22z" id="base 1 1 1" fill="none" stroke-width="1"></path><g id="Layer_1 1 1" fill="#000000" stroke-width="1" font-family="Roboto, sans-serif" font-weight="normal" font-size="14" text-anchor="start"><g><g></g></g><g><g></g></g><g><g></g></g><g><g></g></g><g><g></g></g><g><g></g></g><g><g></g></g><g><g></g></g><g><g></g></g><g><g></g></g><g><g></g></g><g><g></g></g><g><g></g></g><g><g></g></g><g><g></g></g><g><g></g></g><g></g><g></g><g></g><g></g><g></g><g></g><g></g><g></g><g></g><g></g><g></g><g></g><g></g><g></g><g></g></g><rect x="2" y="2" width="44" height="22" fill="none" stroke-width="1"></rect><path d="M2,24v-22h44v22z" fill="none" stroke-width="1"></path><path d="M2,24v-22h44v22z" fill="none" stroke-width="1"></path><path d="M2,24v-22h44v22z" fill="none" stroke-width="1"></path><path d="M2,24v-22h44v22z" fill="none" stroke-width="1"></path></g></svg>